<?xml version="1.0" encoding="utf-8"?>
<!-- Generator: Adobe Illustrator 17.0.0, SVG Export Plug-In . SVG Version: 6.00 Build 0)  -->
<!DOCTYPE svg PUBLIC "-//W3C//DTD SVG 1.1//EN" "http://www.w3.org/Graphics/SVG/1.1/DTD/svg11.dtd">
<svg version="1.1" id="Capa_1" xmlns="http://www.w3.org/2000/svg" xmlns:xlink="http://www.w3.org/1999/xlink" x="0px" y="0px"
	 width="8px" height="6px" viewBox="0 0 8 6" enable-background="new 0 0 8 6" xml:space="preserve">
<g>
	<g>
		<defs>
			<rect id="SVGID_1_" width="7.92" height="6"/>
		</defs>
		<clipPath id="SVGID_2_">
			<use xlink:href="#SVGID_1_"  overflow="visible"/>
		</clipPath>
		<path clip-path="url(#SVGID_2_)" d="M7.602,2.398H0.398C0.18,2.398,0,2.578,0,2.801C0,3.02,0.18,3.199,0.398,3.199h7.204
			C7.82,3.199,8,3.02,8,2.801C8,2.578,7.82,2.398,7.602,2.398L7.602,2.398z M7.602,2.398"/>
		<path clip-path="url(#SVGID_2_)" d="M0.398,0.801h7.204C7.82,0.801,8,0.621,8,0.398C8,0.18,7.82,0,7.602,0H0.398
			C0.18,0,0,0.18,0,0.398C0,0.621,0.18,0.801,0.398,0.801L0.398,0.801z M0.398,0.801"/>
		<path clip-path="url(#SVGID_2_)" d="M7.602,4.801H0.398C0.18,4.801,0,4.98,0,5.199c0,0.223,0.18,0.403,0.398,0.403h7.204
			C7.82,5.602,8,5.422,8,5.199C8,4.98,7.82,4.801,7.602,4.801L7.602,4.801z M7.602,4.801"/>
	</g>
</g>
</svg>
